<svg xmlns="http://www.w3.org/2000/svg" viewBox="0 0 300 222.06"><defs><style>.cls-1{fill:#fff;}.cls-2{fill:#c69360;}</style></defs><g id="Layer_24" data-name="Layer 24"><polygon class="cls-1" points="220.05 186.03 180.84 186.03 180.84 177.63 211.65 177.63 211.65 141.62 220.05 141.62 220.05 186.03"/><polygon class="cls-1" points="220.05 86.49 211.65 86.49 211.65 47.8 97.88 47.8 97.88 31.87 39.45 31.87 39.45 80.33 31.04 80.33 31.04 23.46 106.28 23.46 106.28 39.39 220.05 39.39 220.05 86.49"/><polygon class="cls-1" points="213.21 88.29 186.05 61.3 173.41 67.39 167.49 82.35 159.67 79.25 166.81 61.24 187.76 51.15 219.14 82.33 213.21 88.29"/><polygon class="cls-1" points="245.81 168.64 214.39 137.57 220.3 131.59 247.44 158.43 260.07 152.11 265.04 139.11 236.94 111.79 242.8 105.76 274.86 136.94 266.76 158.16 245.81 168.64"/><polygon class="cls-1" points="190.74 170.44 184.59 164.71 264.92 78.52 258.63 65.92 246.18 61.2 189.3 120.45 183.24 114.63 243.97 51.36 264.68 59.23 275.05 79.98 190.74 170.44"/><polygon class="cls-1" points="184.42 186.03 3.59 186.03 3.59 77.01 190.75 77.01 190.75 170.38 182.34 170.38 182.34 85.42 12 85.42 12 177.63 184.42 177.63 184.42 186.03"/><rect class="cls-1" x="34.54" y="100.72" width="60.68" height="8.41"/><rect class="cls-1" x="34.54" y="120.49" width="39.16" height="8.41"/><polygon class="cls-2" points="215.63 2.91 224.88 20.9 215.63 33.28 206.38 20.9 215.63 2.91"/><polygon class="cls-2" points="215.63 219.55 224.1 203.08 215.63 191.75 207.16 203.08 215.63 219.55"/><polygon class="cls-2" points="276.95 118.65 265.23 109.89 276.95 101.14 293.99 109.89 276.95 118.65"/></g></svg>