<svg xmlns="http://www.w3.org/2000/svg" viewBox="0 0 690.02 690.02"><defs><style>.b{fill:#0c0c0c}</style></defs><path d="M690 345c0 190.54-154.47 345-345 345S0 535.55 0 345 154.47 0 345 0s345 154.47 345 345" fill="#604f64"/><path class="b" d="M344.12 368.66a23.32 23.32 0 10-23.31-23.32 23.33 23.33 0 0023.31 23.32z"/><path class="b" d="M638.38 253.38l-11.3.11 8.09-7.44-28.39-87.12-1-3.14-77.52-59.93-8.64 6.14 2.26-9.28-77.44-55.4-.39.38h-95.37l-3.83 11.16-4.05-11.16h-94.86l-73.37 52.45-3.72 2.35 2.54 12.43-11.14-7.83-73.36 56.7-2.63 2-29.09 89.28-.29.89 9.43 8.64-13-.23-27.52 87.54-1.07 3.39L53 434l11.87.89-11 8.07 28.47 89.35 1.11 3.44L157.83 588l4.26 3 8.44-6.14-2.89 9.6L242 650.27l2.87 2.43h95.38l4.57-12.17 4.33 12.17h95.88l76.43-57.35.87-.79-3.33-9.49 8.34 6.33 76.32-53.54 3-2.09 28-88 1.69-5.31-7.68-5.81 8.32-.54 29.18-87.5 1.13-3.33zm-9.94 171.68l-31.71 2.07 26.06 19.68-26 81.69-69.15 48.5-32.74-25 13.65 38.87-67.34 50.83h-83.82l-12.23-34.37-12.91 34.37h-83.47l-67.66-51.12 10.48-35.11-29.6 21.37-68.73-48.27-25.84-81.12L97 425.71 61.48 423 35 345.18l24.86-79 35 .61-26.61-24.34 26-79.66 66.42-51.37 27.9 19.4-6.8-33.26 68-48.86h83l12.51 34.45L357 48.7h83.31l68.45 49.19-7.76 31.74 27-19.23 67.86 52.44 26 79.73L597 265.43l32.93-.34 25.19 80.1z"/><path class="b" d="M375.33 459.74L342.68 436l-32.24 23.73 32.23 92.69 32-90.77zm-32.59 60.9l-19.83-57L342.72 449l20.1 14.59zM383.54 469.62l-33.12 99.78-.29 1.5 20.24 61.8h66.33l53.63-38.44-19.8-62.37zm49.83 152.08H378l-16.8-51.05 27.83-84 72.56 51.58L478 589.91zM436.19 419.7h-37.38l-11 35.46 77.6 55.77zm-29.62 11h21.95l17.21 53.3L400 451.6zM462.17 351.24l-30.63 21.43 11.53 35.72 95.44 1zm-18.24 25.59l18-12.59 45 34.32-56.2-.59zM442.75 279.63l-11.38 35.61 30.8 21.43 76.56-57zm19.25 44.1L443.74 311l6.68-20.9h56.62zM434.49 268.73l29.32-94.08L386 234.2l-1.59 1.23 12.75 35.15zm9.51-65.66l-17.3 55.53-22.3 1.11-7.48-20.62zM447.49 419.7l33.63 103.67.29.66 52.79 37.52 52.09-38.3 22.06-62.2-54.66-41.35zm130 97.06l-43.35 31.88L490.33 518l-28.4-87.25h88.21L595.9 465zM556.26 282.3l-85.35 63.2 89 63.63.74.53 64.81-1.19 19.11-61.73L625 283.31zm61.37 115.81l-53.73 1-75.14-53.74 70.9-52.49 57.57.85 16.3 53zM446.63 269.8l110.28.7 52.27-38.34-19.85-61-.14-.43-52.5-40.58L479.92 169zm89.68-126.68L580.2 177l16.64 51.14L553.5 260l-92.37-.59 27.66-83.76zM470.36 157.47l.73-.54 18.62-62.09-52.61-36.75-.37-.26-66.36-.74-21.75 64.71-.16.47 34.19 100.55zM377.9 67.68l55.47.62 44.09 30.8L462 150.58l-74 55.19-28.4-83.52z"/><path class="b" d="M311.22 444.1l33-24.51 33.42 24.47 12.48-37.76 40.57.05-11.65-38.76 31.19-23.36-32.07-23.58 12.29-38-40.45-.44-12-37.76-33.5 24.14-33.58-24.15-11.8 37.77-39.88.42 12.09 38-31.55 23.57 30.69 23.35-11.47 38.8 39.93-.05zm-54.29-99.8l26.46-19.77-10.09-31.72 33.44-.36 9.74-31.17 28.31 20.91 27.68-20.94 9.9 31.21 34 .35-10.26 31.75 26.86 19.74-25.83 19.35 9.69 32.35h-34.14l-10.37 31.39-28.14-20.57-27.58 20.44L306.42 396h-33.6l9.56-32.33z"/><path class="b" d="M302.32 357.64l-6.58 22.23h22.86l7.06 21.72 18.93-14.05 19.13 14 7.16-21.68h23.22l-6.68-22.22 17.92-13.42-18.34-13.5 7-21.8-23.22-.24-6.87-21.68-19.19 13.85L325.46 287l-6.77 21.69-22.85.24 6.93 21.81-18.07 13.5zm5.38-40.13l17.41-.19 5-16.13 14.74 10.89 14.39-10.89 5.12 16.13 17.68.19-5.29 16.49 14 10.27-13.39 10 5.05 16.83h-17.8l-5.38 16.29-14.69-10.69-14.35 10.65-5.27-16.22H307.4l5-16.8-13.21-10.06L313 334zM217.47 531.05l-.74.54-19.48 62.66 52.8 38.45h65.34l19.77-61.35.15-.77-32.89-100.83zm90.29 90.65h-54.34l-43.86-31.81 16.15-51.64 71.2-51.61 27.35 84.06zM298.27 455.16l-10.86-35.46h-36.87L221.8 511zm-40-24.46h21.36l6.44 20.6-44.69 32.84zM243.84 408.39l11.34-35.7L225 351.22l-75.15 58.18zm-18.57-44.09l17.58 12.5-6.72 21.2-55.12.59zM225 336.69l30.36-21.46-11.2-35.6h-94.52zm18-25.62l-17.83 12.6-44.29-33.51h55.54zM289.07 270.58l12.57-35.22-78.43-58.6 28.72 91 .31 1zm-46-65.89l46.1 34.45-7.37 20.56-21.74-1.09zM239.49 419.7H134.9L81.1 461l21.56 62 .15.33 51.31 38.22 52-37.26zm-85.28 128.73l-42.53-31.73L93.5 465l45-34.26h86.62l-28 87.29zM128.14 409.66l88.29-64.16-84-63.2-67.74 1-19.19 63.44 18.8 61.73 62.92 1.17zm-56-11.55l-15.66-51.38 16-53 56.47-.85 69.77 52.49-73.94 53.74zM240.34 269.8L207.58 169l-55.92-38.85-51.36 40.29-.35.28-19.66 61.43 51.45 38.35zM109 177l43-33.83 46.64 32.4 27.23 83.81-90.72.59-42.57-31.76zM303.29 222.86L337 122.27l-21.61-65.18-65.39.74-52.15 37 18.31 62.07zM253.43 68.3l54.4-.62 18.05 54.57-27.88 83.4-72.69-55-15.24-51.58zM342.63 252.78l30.57-22.25-30.58-90.67-30.08 90.66zm.07-79.78l18.08 53.61-18.1 13.17-17.77-13.18z"/></svg>