<svg xmlns="http://www.w3.org/2000/svg" viewBox="0 0 661.52 661.51"><defs><style>.a{fill:#e0dee1}</style></defs><path class="a" d="M661.52 331.23l-81.41-80.48h-52.44l37.42-38.66V97.75h-115l-38 36.76V81.39L331.09 0l-81 81.39v53l-38-36.59h-115v114.29l36.76 38.66H81.39L0 331.23l81.39 80.52h52.46l-36.76 37.68v115.32h115l38-37.6v53l81 81.4 81-81.4V527l38 37.77h115V449.43l-37.42-37.68h52.44zm-167.18 67.52l55.75 56.39v95.61h-94.26l-57.74-57.11v80.7l-67.49 67.42-67.51-67.42v-80.88l-56.75 57.29h-95.25v-95.61l56.1-56.39h-80l-67.45-67.51 67.45-67.49h80l-56.1-57.39v-94.61h95.25l56.75 56.3V87.18l67.51-67.45 67.49 67.45v80.69l57.74-56.12h94.26v94.61l-55.75 57.39h80l67.43 67.49-67.43 67.51z"/><path class="a" d="M221.37 331.24l-41.51-41.49h-75.6l-41.51 41.49 41.51 41.51h75.6l41.51-41.51zM253.09 255.75v-60.12l-53.65-52.88h-58.35v57.83l52.81 55.17h59.19zM141.09 460.93v58.82h58.35l53.65-53.86v-58.14H193.9l-52.81 53.18zM364.09 297.75h-19l-14.33-14.33-14.33 14.33h-18.34v18.67l-14.33 14.33 14.33 14.33v19.67h18.34l14.33 14.33 14.33-14.33h19v-19.67l14.33-14.33-14.33-14.33v-18.67z"/><path class="a" d="M398 331.25l47.45-47.5h-67.36v-67.68l-47.5 47.44-47.5-47.44v67.68h-67l47.44 47.5-47.44 47.5h67v66.68l47.5-47.43 47.5 47.44v-66.69h67.36zm-33.91 33.5v47.72l-33.5-33.78-33.5 33.78v-47.72h-48l33.77-33.51-33.77-33.49h48V249l33.5 33.79 33.5-33.79v48.72h48.38l-33.78 33.49 33.78 33.51z"/><path class="a" d="M373.09 179.87v-75.6l-42-42.14-42 42.14v75.6l42 41.5 42-41.5zM289.09 479.9v75.61l42 42.13 42-42.13V479.9l-42-41.53-42 41.53zM521.09 197.1v-57.35h-59.05l-53.95 52.38v59.62h59.54l53.46-54.65zM408.09 408.75v58.88l53.95 54.12h59.05v-59.07l-53.46-53.93h-59.54zM553.75 289.75h-75.58l-41.52 41.49 41.52 41.51h75.58l42.15-41.51-42.15-41.49z"/></svg>