<svg xmlns="http://www.w3.org/2000/svg" viewBox="0 0 634.29 634.29"><defs><style>.a{fill:#e0dee1}</style></defs><path class="a" d="M609.36 193.69a318.12 318.12 0 1024.93 123.45 316.07 316.07 0 00-24.93-123.45zM317.14 616.12c-164.85 0-299-134.12-299-299s134.12-299 299-299 299 134.12 299 299-134.14 299-299 299z"/><path class="a" d="M357.2 225.63c2 1 4.19 1.58 6 2.72s3.48 2.05 5 2.85a19.77 19.77 0 014.71 3s2.58-2 6.75-4.76a149.37 149.37 0 0116-9.55A217.07 217.07 0 01421.09 209l-.22.8a218.7 218.7 0 01-9.8 25.54 150.22 150.22 0 01-8.78 16.07c-2.61 4.19-4.44 6.81-4.44 6.81a26.09 26.09 0 013.2 4.58c1.66 2.92 4.32 6.54 6 10.69 2.25 3.9 3.46 8.25 4.71 11.35a25.46 25.46 0 011.61 5.36l5.75-4.11a152.56 152.56 0 0014-12 158.31 158.31 0 0018.06-20.06 173.86 173.86 0 0017.3-27 188.32 188.32 0 0013-30.9c3.24-10.25 6.21-20.93 7.54-29.65 1.52-8.88 2.4-16.66 2.91-22.16s.71-8.77.71-8.77v-1l-8.78 1c-5.51.71-13.29 1.86-22.15 3.71-18.09 3.94-40.61 11.43-60.12 22.87a179 179 0 00-26.53 18.38 162.09 162.09 0 00-19.46 18.92 148.47 148.47 0 00-11.52 14.6l-3.9 5.92a35.75 35.75 0 015.43 1.36c3.2 1.25 7.64 2.17 11.59 4.32zM220 294a34.27 34.27 0 011.36-5.44c1.24-3.12 2.15-7.56 4.29-11.51 1-2 1.58-4.19 2.71-6s2.07-3.47 2.87-4.95a20.52 20.52 0 013-4.73s-2-2.58-4.76-6.73a154.17 154.17 0 01-9.55-16A220.17 220.17 0 01209 213.19s3.47 1 8.46 2.77 11.48 4.27 17.54 7.04a149.71 149.71 0 0116.33 8.89c4.26 2.65 6.92 4.51 6.92 4.51a25.6 25.6 0 014.58-3.2c2.9-1.65 6.53-4.32 10.7-6 3.89-2.25 8.23-3.48 11.34-4.73a27.92 27.92 0 015.36-1.61s-1.51-2.09-4.14-5.77a155 155 0 00-12.06-14.11 159.64 159.64 0 00-20.19-18.13 174.53 174.53 0 00-27.22-17.33 189.89 189.89 0 00-31.11-13c-10.35-3.25-21.06-6.15-29.84-7.47-9-1.51-16.79-2.38-22.33-2.87s-8.78-.64-8.78-.64.36 3.18 1 8.77 1.85 13.28 3.7 22.16c3.94 18.08 11.45 40.61 22.87 60.12a179.39 179.39 0 0018.4 26.53 161.14 161.14 0 0018.91 19.45 146.39 146.39 0 0014.61 11.52zM277.1 408.66c-2-1-4.19-1.58-6-2.71s-3.47-2.06-4.95-2.87a20.18 20.18 0 01-4.72-3s-2.58 1.95-6.74 4.75a150.65 150.65 0 01-16 9.56 216.08 216.08 0 01-25.53 10.83l.21-.8a217.43 217.43 0 019.8-25.53 148.29 148.29 0 018.83-16.05c2.61-4.2 4.46-6.82 4.46-6.82a23.73 23.73 0 01-3.21-4.58c-1.66-2.9-4.33-6.52-6-10.71-2.24-3.87-3.47-8.22-4.72-11.32a27 27 0 01-1.61-5.37l-5.74 4.12a155 155 0 00-14 12 160.49 160.49 0 00-18.06 20.06 175.78 175.78 0 00-17.29 27.05 189 189 0 00-13 30.89c-3.24 10.26-6.21 21-7.53 29.66-1.53 8.88-2.4 16.65-2.92 22.16s-.7 8.75-.7 8.75v1l8.77-1c5.52-.71 13.29-1.86 22.17-3.7 18.07-3.94 40.59-11.45 60.12-22.88a177.12 177.12 0 0026.51-18.39 162.32 162.32 0 0019.48-18.91 148.72 148.72 0 0011.51-14.61l3.9-5.9a41.18 41.18 0 01-5.54-1.34c-3.11-1.29-7.6-2.19-11.5-4.34zM495 461.77c-3.93-18.07-11.44-40.59-22.87-60.11a177.56 177.56 0 00-18.39-26.53 161.32 161.32 0 00-18.92-19.46 149.23 149.23 0 00-14.59-11.52l-5.92-3.89a37.39 37.39 0 01-1.36 5.42c-1.24 3.12-2.14 7.57-4.29 11.51-1 2-1.59 4.2-2.72 6s-2.07 3.47-2.86 4.95a20.64 20.64 0 01-3 4.71s2 2.59 4.76 6.74a155.32 155.32 0 019.54 16 218.41 218.41 0 0110.84 25.54s-3.45-1-8.44-2.76-11.46-4.28-17.54-7.09a144.4 144.4 0 01-16.24-8.93c-4.28-2.65-6.94-4.52-6.94-4.52a23.42 23.42 0 01-4.57 3.21c-2.91 1.67-6.53 4.33-10.7 6-3.89 2.24-8.23 3.46-11.33 4.72a27.62 27.62 0 01-5.38 1.61s1.52 2.1 4.14 5.77a174.25 174.25 0 0032.25 32.24 175.79 175.79 0 0027.22 17.34 189.38 189.38 0 0031.11 13c10.36 3.25 21.06 6.14 29.85 7.47 8.95 1.51 16.78 2.37 22.33 2.87s8.78.65 8.78.65-.37-3.2-1-8.78-1.89-13.29-3.76-22.16z"/><path class="a" d="M566 212a270.84 270.84 0 1021.23 105.11A269.1 269.1 0 00566 212zM317.14 61.61a257 257 0 0129.39 1.68c-4.1 3.63-8.76 7.86-13.16 12.57-5.66 6-10.85 12.12-14.54 16.7s-5.92 7.7-5.92 7.7a287 287 0 00-21.43-23.61c-4.51-4.34-9.37-8.52-13.62-12a255.78 255.78 0 0139.28-3.04zm-98.07 21.58c4.55-1.68 10.6-3.94 16.68-6.18 6-2.4 12.36-3.71 17-5l7.81-2a115.27 115.27 0 019.73 7.38c5.72 4.65 12.95 11 19.5 17.44a228.73 228.73 0 0116.82 19c4.2 5.29 6.71 8.83 6.71 8.83a255.94 255.94 0 0122.41-28.81c6.31-6.69 13.28-13.26 18.8-18.11s9.44-7.8 9.44-7.8l7.89 1.72c4.71 1.16 11.14 2.21 17.24 4.34l16.9 5.57a53.07 53.07 0 015.45 2.12c1.3.57 2.05.88 2.05.88l-5.94 3c-3.78 1.91-9.12 5.09-15.17 8.87A218.64 218.64 0 00372.8 108a259.39 259.39 0 00-19.8 17.69 208.63 208.63 0 00-16.84 19.44 158.4 158.4 0 00-12.15 18c-3.2 5.43-5.55 10-7.13 13.1s-2.39 5-2.39 5a183.12 183.12 0 00-10.22-17.71c-1.7-2.65-3.63-5.57-5.79-8.55s-4.47-5.83-7-8.9a195.33 195.33 0 00-17.58-18.76 260.29 260.29 0 00-20.51-16.93c-7-5-13.87-9.23-20.09-12.85a174.17 174.17 0 00-21.54-10.94s2.84-1.52 7.31-3.4zM64.63 356.44a257.44 257.44 0 01-1.34-68.68c3.63 4.1 7.86 8.75 12.58 13.15 6 5.67 12.1 10.87 16.7 14.54s7.7 5.94 7.7 5.94a285.43 285.43 0 00-23.61 21.42c-4.34 4.51-8.53 9.37-12.03 13.63zm18.57 58.78c-1.69-4.55-3.94-10.61-6.2-16.68s-3.7-12.36-5-17l-2-7.81a121.28 121.28 0 017.34-9.73c4.64-5.71 11-12.94 17.42-19.51a237.11 237.11 0 0119-16.8c5.3-4.2 8.83-6.72 8.83-6.72a255 255 0 01-28.8-22.41c-6.68-6.29-13.27-13.27-18.12-18.79s-7.81-9.44-7.81-9.44.7-3.16 1.74-7.89 2.27-11.12 4.4-17.24 4.06-12.29 5.6-16.89a46.92 46.92 0 012.13-5.46l.88-2s1.06 2.16 2.94 5.93 5.09 9.12 8.86 15.17a215.37 215.37 0 0013.66 19.57 263.91 263.91 0 0017.64 19.83 215.92 215.92 0 0019.44 16.84 159.56 159.56 0 0018 12.14c5.43 3.21 9.94 5.55 13.11 7.14s5 2.37 5 2.37A192.57 192.57 0 00163.48 330c-2.65 1.71-5.57 3.64-8.54 5.79s-5.84 4.48-8.91 7.05a197.8 197.8 0 00-18.76 17.58A260.83 260.83 0 00110.34 381c-5 7-9.21 13.86-12.84 20.07a175.84 175.84 0 00-10.94 21.54s-1.5-2.91-3.36-7.39zm233.94 157.45a259 259 0 01-29.37-1.67c4.1-3.63 8.75-7.86 13.15-12.57 5.67-6 10.86-12.12 14.54-16.7s5.92-7.7 5.92-7.7a291 291 0 0021.43 23.61c4.51 4.33 9.37 8.51 13.63 12a255.94 255.94 0 01-39.3 3.03zm98.09-21.58l-16.68 6.2c-6 2.39-12.36 3.69-17 5l-7.82 2A119.35 119.35 0 01364 557c-5.71-4.64-12.93-11-19.5-17.42a232.4 232.4 0 01-16.82-19c-4.2-5.28-6.7-8.83-6.7-8.83a257.35 257.35 0 01-22.41 28.81c-6.31 6.69-13.29 13.26-18.81 18.11s-9.44 7.82-9.44 7.82l-7.88-1.73c-4.7-1.19-11.1-2.24-17.22-4.34l-16.89-5.6a54 54 0 01-5.46-2.13c-1.29-.57-2-.88-2-.88l5.95-2.94c3.75-2 9.12-5.09 15.16-8.87a220.67 220.67 0 0019.57-13.65c6.82-5.49 13.61-11.52 19.82-17.65a211.73 211.73 0 0016.84-19.45 158.67 158.67 0 0012.14-18c3.2-5.42 5.57-9.94 7.14-13.09s2.38-5 2.38-5A185.31 185.31 0 00330 470.81c1.7 2.65 3.64 5.57 5.79 8.55s4.48 5.83 7 8.9A196.51 196.51 0 00360.44 507 264.54 264.54 0 00381 524a237.77 237.77 0 0020 12.79 174.54 174.54 0 0021.53 10.94s-2.83 1.49-7.3 3.36zm27.36-11.39c-4.46-1.49-9.76-3.46-15.61-6-8.78-3.86-18.27-8.09-28.07-14.13s-19.25-12.31-28.1-20a193 193 0 01-39.52-45.65c-4.16-7-7.1-12.78-9.05-16.83s-2.86-6.36-2.86-6.36-.88 2.39-2.64 6.48-4.48 10-8.38 17.12a190.09 190.09 0 01-37.69 47.16 218.06 218.06 0 01-54.78 36.31c-4.29 2-8.31 3.81-12 5.35-1.2.47-2.34.91-3.44 1.32A257.31 257.31 0 0194.59 442.6c1.49-4.47 3.46-9.77 6-15.64 3.85-8.77 8.08-18.26 14.12-28s12.32-19.26 20-28.11a192.31 192.31 0 0145.65-39.51c7-4.19 12.77-7.12 16.83-9l6.36-2.89s-2.38-.86-6.49-2.62-10-4.48-17.11-8.37a191.25 191.25 0 01-47.17-37.7 218.51 218.51 0 01-36.3-54.79c-2-4.27-3.8-8.31-5.35-11.94-.48-1.2-.91-2.35-1.32-3.45A257.25 257.25 0 01191.69 94.59a192.8 192.8 0 0115.63 6c8.77 3.85 18.27 8.08 28.06 14.11s19.25 12.32 28.09 20A192.16 192.16 0 01303 180.37c4.18 7 7.12 12.79 9.05 16.84s2.87 6.36 2.87 6.36.87-2.39 2.64-6.5 4.48-10 8.37-17.1a190.92 190.92 0 0137.69-47.18A218.22 218.22 0 01418.4 96.5c4.28-2 8.31-3.81 12-5.34 1.2-.48 2.34-.92 3.43-1.33a257.36 257.36 0 01105.88 101.86c-1.5 4.47-3.47 9.77-6 15.62-3.86 8.77-8.08 18.28-14.11 28.07s-12.32 19.25-20 28.1A192.91 192.91 0 01453.91 303c-7 4.16-12.77 7.1-16.83 9l-6.36 2.88s2.38.87 6.49 2.63 10 4.48 17.12 8.37a190.8 190.8 0 0147.16 37.7 218.1 218.1 0 0136.3 54.78c2 4.28 3.8 8.32 5.35 12q.72 1.78 1.32 3.42A257.26 257.26 0 01442.59 539.7zm122.06-167.82c-1.17 4.69-2.23 11.09-4.33 17.22s-4.07 12.28-5.61 16.88a46.89 46.89 0 01-2.12 5.45c-.57 1.31-.88 2-.88 2s-1.08-2.15-2.94-5.93-5.09-9.13-8.86-15.16a216 216 0 00-13.66-19.58A261.46 261.46 0 00508.6 353a211.65 211.65 0 00-19.44-16.84 157.79 157.79 0 00-18-12.14c-5.43-3.21-9.94-5.56-13.1-7.13s-5-2.4-5-2.4a182.8 182.8 0 0017.73-10.21c2.64-1.7 5.56-3.65 8.55-5.79 2.83-2.13 5.83-4.47 8.9-7A197.87 197.87 0 00507 273.85a262.28 262.28 0 0017-20.52 234.68 234.68 0 0012.84-20.09 174.83 174.83 0 0011-21.53s1.49 2.89 3.36 7.36l6.19 16.66c2.39 6 3.7 12.38 5 17s2 7.82 2 7.82-2.62 4-7.37 9.73-11 12.93-17.43 19.5a232.35 232.35 0 01-19 16.81c-5.29 4.19-8.83 6.71-8.83 6.71a255.52 255.52 0 0128.82 22.41c6.68 6.3 13.25 13.28 18.1 18.79s7.81 9.45 7.81 9.45-.79 3.2-1.84 7.93zm-6.22-38.51c-6-5.66-12.11-10.86-16.7-14.54S534 312.9 534 312.9a289.77 289.77 0 0023.61-21.42c4.33-4.51 8.51-9.37 12-13.63a258.5 258.5 0 011.39 68.67c-3.63-4.11-7.86-8.75-12.57-13.15z"/><path class="a" d="M357.07 357.07a145.65 145.65 0 0031.37-10.39 145.39 145.39 0 00-14.83-29.54 145.05 145.05 0 0014.83-29.53 146.22 146.22 0 00-31.37-10.4 145 145 0 00-10.4-31.36 145.31 145.31 0 00-29.53 14.83 145.05 145.05 0 00-29.53-14.83 145.59 145.59 0 00-10.4 31.36 146.14 146.14 0 00-31.36 10.4 145.05 145.05 0 0014.83 29.53 145.39 145.39 0 00-14.83 29.54 145.56 145.56 0 0031.36 10.39 145.67 145.67 0 0010.4 31.37 145.05 145.05 0 0029.53-14.83 145.31 145.31 0 0029.53 14.83 145.13 145.13 0 0010.4-31.37zm-16.81-39.93A23.12 23.12 0 11317.14 294a23.12 23.12 0 0123.12 23.14zM317.14 239.86a9.83 9.83 0 10-9.82-9.82 9.83 9.83 0 009.82 9.82zM317.14 394.42a9.83 9.83 0 109.83 9.83 9.83 9.83 0 00-9.83-9.83zM220.21 317.14a9.83 9.83 0 109.83-9.82 9.83 9.83 0 00-9.83 9.82zM404.25 307.32a9.83 9.83 0 109.83 9.82 9.83 9.83 0 00-9.83-9.82zM248.6 248.6a9.83 9.83 0 1013.9 0 9.83 9.83 0 00-13.9 0zM371.79 371.79a9.83 9.83 0 1013.9 0 9.83 9.83 0 00-13.9 0zM262.5 385.69a9.83 9.83 0 10-13.9 0 9.83 9.83 0 0013.9 0zM371.79 248.6a9.83 9.83 0 1013.9 0 9.83 9.83 0 00-13.9 0z"/></svg>