<svg xmlns="http://www.w3.org/2000/svg" viewBox="0 0 300 281.52"><defs><style>.cls-1{fill:#fff;}.cls-2{fill:#c69360;}</style></defs><g id="Layer_24" data-name="Layer 24"><path class="cls-1" d="M136.32,217.78l-46.73-86.3,41.64-55.55L221.84,111Zm-34.56-85.41L138,199.25,205,115.56,134.79,88.34Z"/><rect class="cls-2" x="247.81" y="128.36" width="8.91" height="54.19" transform="translate(-31.35 241.28) rotate(-48.48)"/><rect class="cls-2" x="244.2" y="143.38" width="8.91" height="113.54" transform="translate(-63.81 265.38) rotate(-50.62)"/><rect class="cls-2" x="186.98" y="184.93" width="8.91" height="28.62" transform="translate(-83.82 223.25) rotate(-51.13)"/><rect class="cls-2" x="188.12" y="197.62" width="8.91" height="79.71" transform="translate(-113.16 234.51) rotate(-50.4)"/><rect class="cls-1" x="68.57" y="91.58" width="10.28" height="52.29" transform="translate(-65.17 115.72) rotate(-57.12)"/><polygon class="cls-1" points="142.51 274.17 102.64 234.3 46.25 234.3 46.25 177.91 6.37 138.03 46.25 98.16 46.25 41.77 107.23 41.77 137.02 78.92 129 85.35 102.3 52.05 56.53 52.05 56.53 102.42 20.91 138.03 56.53 173.65 56.53 224.02 106.9 224.02 142.51 259.63 178.13 224.02 228.5 224.02 228.5 173.65 264.11 138.03 228.5 102.42 228.5 52.05 178.13 52.05 138.88 12.8 146.15 5.53 182.39 41.77 238.78 41.77 238.78 98.16 278.65 138.03 238.78 177.91 238.78 234.3 182.39 234.3 142.51 274.17"/></g></svg>