<svg xmlns="http://www.w3.org/2000/svg" viewBox="0 0 300 300"><defs><style>.cls-1{fill:#fff;}.cls-2{fill:#c69360;}</style></defs><g id="Layer_24" data-name="Layer 24"><path class="cls-1" d="M124.28,296.84,1.74,174.3,97.37,82V225.36l39.79-20.12h78.71ZM15.76,174.43,124.28,283l67.88-67.89H139.5L87.55,241.33V105.15Z"/><polygon class="cls-1" points="262.44 215.24 205.88 215.24 205.88 205.42 252.62 205.42 252.62 50.93 97.28 50.93 97.28 93.17 87.46 93.17 87.46 41.11 262.44 41.11 262.44 215.24"/><polygon class="cls-1" points="143.82 51 136.89 44.05 175.79 5.3 215.17 43.37 208.35 50.43 175.9 19.06 143.82 51"/><polygon class="cls-1" points="213.22 212.81 206.28 205.86 284.54 127.59 255.31 96.29 262.49 89.59 298.2 127.83 213.22 212.81"/><polygon class="cls-1" points="210.88 260.97 37.67 260.97 37.67 87.77 95.65 87.77 95.65 97.58 47.5 97.58 47.5 251.15 201.06 251.15 201.06 211.69 210.88 211.69 210.88 260.97"/><rect class="cls-2" x="122.91" y="72.39" width="48.55" height="48.55"/><rect class="cls-2" x="65.75" y="133.29" width="21.6" height="37.57"/></g></svg>