<svg xmlns="http://www.w3.org/2000/svg" viewBox="0 0 163.05 200"><defs><style>.cls-1{fill:#c69360;}.cls-2{fill:#fff;}</style></defs><g id="Layer_15" data-name="Layer 15"><polygon class="cls-1" points="33.22 51.17 17.78 41.87 33.22 32.56 33.22 51.17"/><polygon class="cls-1" points="125.06 51.17 140.49 41.87 125.06 32.56 125.06 51.17"/><path class="cls-2" d="M79.12,124.75A36.13,36.13,0,0,1,43,88.67V38.41a36.09,36.09,0,1,1,72.17,0V88.67A36.12,36.12,0,0,1,79.12,124.75ZM48.63,44V88.67a30.49,30.49,0,0,0,61,0V38.41a30.49,30.49,0,0,0-61,0Z"/><rect class="cls-2" x="45.54" y="43.19" width="19.5" height="5.6"/><rect class="cls-2" x="45.86" y="83.27" width="19.19" height="5.6"/><rect class="cls-2" x="98.81" y="32.1" width="13.2" height="5.6"/><rect class="cls-2" x="93.32" y="52.14" width="18.47" height="5.6"/><rect class="cls-2" x="92.92" y="72.18" width="18.84" height="5.6"/><rect class="cls-2" x="82.11" y="94.25" width="29.64" height="5.6"/><path class="cls-2" d="M81.4,197.23,1.9,117.73,81.4,38.24l79.49,79.49ZM9.82,117.73,81.4,189.31,153,117.73,81.4,46.16Z"/><polygon class="cls-2" points="137.61 173.94 25.19 173.94 25.19 61.52 59.16 61.52 59.16 67.12 30.79 67.12 30.79 168.34 132.01 168.34 132.01 67.12 113.3 67.12 113.3 61.52 137.61 61.52 137.61 173.94"/><rect class="cls-2" x="76.32" y="121.95" width="5.6" height="28.96"/></g></svg>